<?xml version="1.0" encoding="UTF-8"?>
<svg width="1000px" height="1010px" viewBox="0 0 1000 1010" version="1.1" xmlns="http://www.w3.org/2000/svg" xmlns:xlink="http://www.w3.org/1999/xlink">
    <!-- Generator: Sketch 49.3 (51167) - http://www.bohemiancoding.com/sketch -->
    <title>Slice 1</title>
    <desc>Created with Sketch.</desc>
    <defs></defs>
    <g id="Page-1" stroke="none" stroke-width="1" fill="none" fill-rule="evenodd">
        <g id="icon" fill-rule="nonzero">
            <g id="#ff4e4eff" transform="translate(592.760181, 0.000000)" fill="#FF4E4E">
                <path d="M80.1357466,36.2895928 C123.9819,4.75113122 182.217195,-7.78280543 234.660633,7.01357466 C282.443439,18.280543 324.977376,50.4977376 349.909502,92.8506787 C385.339367,150.361991 380.904977,224.072398 356.108597,284.751131 C342.986425,316.877828 326.153846,347.466063 306.425339,376.0181 C281.719457,412.986425 252.624434,446.968326 220.995475,478.235294 C209.230769,487.058824 199.954751,506.651584 182.488688,500.723982 C140.588235,466.606335 107.285068,423.257919 74.0271493,381.221719 C58.4615385,359.140271 44.7963801,335.701357 33.3031674,311.266968 C25.5656109,292.941176 18.280543,274.434389 12.2171946,255.429864 C2.57918552,221.266968 -2.1719457,184.705882 6.15384615,149.683258 C16.1085973,104.705882 42.5791855,63.438914 80.1357466,36.2895928 Z M59.4117647,108.868778 C36.2443439,144.705882 32.9864253,190 41.8099548,230.995475 C49.2307692,263.529412 62.9411765,294.208145 79.3665158,323.167421 C109.502262,373.665158 146.470588,420.633484 189.683258,460.452489 C234.208145,416.968326 274.072398,368.144796 304.298643,313.61991 C332.036199,262.669683 351.809955,201.99095 334.977376,144.208145 C322.760181,103.167421 292.39819,67.60181 253.303167,50 C225.339367,35.520362 193.122172,34.7963801 162.39819,37.7375566 C120.135747,45.7918552 81.5384615,71.8099548 59.4117647,108.868778 Z" id="Shape"></path>
                <path d="M163.710407,104.615385 C196.651584,94.7963801 234.977376,105.429864 256.108597,133.031674 C275.339367,155.61086 280.226244,188.280543 271.085973,216.244344 C260.045249,248.190045 229.095023,273.61991 194.751131,274.434389 C163.846154,277.375566 133.122172,261.085973 116.561086,235.113122 C84.841629,189.638009 110.316742,119.457014 163.710407,104.615385 Z M173.529412,138.054299 C158.778281,142.533937 146.38009,154.208145 141.131222,168.733032 C130.769231,190.135747 140.542986,217.104072 159.095023,230.633484 C179.638009,245.927602 211.040724,242.760181 227.511312,222.986425 C242.352941,207.285068 246.0181,181.900452 234.79638,163.167421 C223.710407,141.99095 196.425339,129.230769 173.529412,138.054299 Z" id="Shape"></path>
            </g>
            <g id="#007af5ff" transform="translate(0.000000, 4.524887)" fill="#007AF5">
                <path d="M92.9864253,210.361991 C185.746606,78.6425339 345.339367,-2.71493213 506.515837,1.04072398 C563.303167,1.35746606 619.547511,12.5339367 672.895928,31.7647059 C635.339367,58.9140271 608.868778,100.180995 598.914027,145.158371 C580.81448,120.452489 556.696833,99.1402715 527.692308,88.3710407 C527.466063,142.488688 527.737557,196.651584 527.556561,250.81448 C553.348416,251.085973 579.140271,250.81448 604.977376,250.904977 C611.040724,269.909502 618.325792,288.41629 626.063348,306.742081 C593.257919,305.927602 560.452489,306.561086 527.647059,306.425339 C527.466063,361.945701 527.737557,417.466063 527.511312,473.031674 C582.941176,473.348416 638.461538,473.393665 693.891403,473.031674 C693.076923,451.447964 691.58371,429.954751 688.959276,408.552036 C681.764706,397.782805 672.217195,388.506787 666.78733,376.696833 C700.045249,418.733032 733.348416,462.081448 775.248869,496.199095 C792.714932,502.126697 801.99095,482.533937 813.755656,473.710407 C847.737557,472.352941 881.855204,474.027149 915.837104,472.895928 C912.850679,440.045249 907.058824,407.420814 897.466063,375.837104 L899.18552,371.493213 C918.914027,342.941176 935.746606,312.352941 948.868778,280.226244 C1020.49774,425.294118 1016.56109,605.113122 935.972851,745.791855 C888.371041,830.723982 815.339367,901.176471 728.733032,945.656109 C587.963801,1019.14027 411.447964,1019.09502 270.723982,945.475113 C176.108597,896.923077 98.0090498,817.19457 51.0859729,721.809955 C-29.8642534,560.723982 -13.5746606,356.0181 92.9864253,210.361991 Z M430,113.484163 C388.642534,149.59276 364.886878,200.588235 345.20362,250.723982 C387.556561,251.131222 429.864253,250.904977 472.217195,250.81448 C471.99095,196.651584 472.39819,142.443439 472.036199,88.280543 C456.696833,94.1628959 442.443439,102.80543 430,113.484163 Z M166.742081,250.769231 C206.651584,251.040724 246.561086,250.859729 286.425339,250.859729 C303.936652,200.678733 325.701357,151.221719 358.778281,109.140271 C282.669683,136.108597 215.475113,186.606335 166.742081,250.769231 Z M131.447964,306.515837 C104.117647,357.918552 88.280543,415.067873 83.9819005,473.031674 C139.411765,473.348416 194.886878,473.393665 250.316742,473.031674 C252.036199,417.466063 258.778281,362.126697 270.950226,307.873303 L269.140271,306.063348 C223.257919,306.877828 177.330317,305.972851 131.447964,306.515837 Z M305.746606,472.941176 C361.221719,473.348416 416.832579,473.61991 472.307692,472.80543 C471.945701,417.330317 472.307692,361.855204 472.126697,306.425339 C424.343891,306.334842 376.606335,306.425339 328.868778,306.334842 C314.932127,360.81448 308.325792,416.877828 305.746606,472.941176 Z M84.1628959,528.552036 C88.2352941,586.561086 103.710407,644.479638 131.945701,695.384615 C178.371041,695.384615 224.751131,695.565611 271.131222,695.294118 C258.687783,640.633484 252.669683,584.751131 249.819005,528.914027 C194.660633,528.144796 139.366516,528.823529 84.1628959,528.552036 Z M305.927602,528.597285 C307.782805,584.705882 315.384615,640.588235 328.552036,695.158371 C375.972851,695.791855 423.484163,695.20362 470.904977,695.475113 L472.352941,693.936652 C471.855204,638.823529 472.443439,583.710407 472.036199,528.597285 C416.696833,528.597285 361.312217,528.597285 305.927602,528.597285 Z M527.692308,528.552036 C527.330317,583.936652 527.963801,639.321267 527.375566,694.705882 C575.022624,696.425339 623.167421,694.932127 670.995475,695.429864 C684.660633,640.81448 691.764706,584.751131 693.800905,528.597285 C638.41629,528.597285 583.076923,528.597285 527.692308,528.552036 Z M728.733032,695.294118 C775.248869,695.475113 821.809955,695.565611 868.371041,695.248869 C895.656109,643.846154 911.674208,586.606335 915.61086,528.597285 C860.542986,528.552036 805.475113,528.642534 750.40724,528.506787 C746.561086,584.208145 741.221719,640.497738 728.733032,695.294118 Z M167.60181,750.723982 C214.343891,815.656109 282.39819,864.886878 357.375566,892.39819 C326.877828,849.683258 303.257919,802.217195 287.149321,752.171946 C247.647059,748.914027 207.375566,751.764706 167.60181,750.723982 Z M345.565611,752.081448 C359.321267,786.877828 374.479638,821.58371 396.832579,851.855204 C416.199095,877.963801 440.633484,902.80543 472.217195,913.122172 C471.99095,859.004525 472.488688,804.932127 471.945701,750.81448 C429.864253,751.58371 387.420814,749.095023 345.565611,752.081448 Z M527.60181,751.719457 C527.556561,805.520362 527.692308,859.276018 527.511312,913.076923 C540.950226,909.864253 552.081448,901.312217 563.393665,893.846154 C608.054299,857.375566 634.932127,804.117647 654.027149,750.769231 C611.900452,751.447964 569.547511,749.502262 527.60181,751.719457 Z M653.61991,875.294118 C649.728507,881.085973 644.343891,886.153846 642.579186,893.21267 C717.013575,864.027149 785.20362,816.063348 832.307692,750.950226 C792.941176,750.588235 753.484163,750.859729 714.072398,750.81448 C697.239819,793.574661 680.723982,837.511312 653.61991,875.294118 Z" id="Shape"></path>
            </g>
        </g>
    </g>
</svg>