<?xml version="1.0" encoding="UTF-8"?>
<svg xmlns="http://www.w3.org/2000/svg" xmlns:xlink="http://www.w3.org/1999/xlink" viewBox="0 0 64 64" version="1.1" width="50px" height="50px">
<g id="surface1">
<path style=" fill:#FFF7F0;" d="M 57 28.328125 L 57 51 C 57 54.3125 54.3125 57 51 57 L 13 57 C 9.6875 57 7 54.3125 7 51 L 7 13 C 7 9.6875 9.6875 7 13 7 L 39.230469 7 "/>
<path style=" fill:#72CAAF;" d="M 7 51 L 7 13 C 7 9.6875 9.6875 7 13 7 L 39.230469 7 L 39 19 Z "/>
<path style=" fill:#F9E3AE;" d="M 13 57 L 9 56 L 7.171875 52.171875 C 7.171875 48.851563 42.5 16 42.5 16 L 42.710938 27.539063 Z "/>
<path style=" fill:#97E0BB;" d="M 57 7 L 12 7 C 11.449219 7 8 9.449219 8 10 C 8 12.210938 9.789063 14 12 14 L 58 14 C 60.210938 14 62 12.210938 62 10 C 62 9.449219 57.550781 7 57 7 Z "/>
<path style=" fill:#FAEFDE;" d="M 36.601563 33.601563 L 57 54 C 57 50.691406 57.519531 27.160156 57.519531 27.160156 L 42.730469 27.570313 Z "/>
<path style=" fill:#85CBF8;" d="M 13 57 L 50 57 L 31.449219 38.710938 Z "/>
<path style=" fill:#ED7899;" d="M 37 14.28125 C 37 7.101563 42.820313 1.28125 50 1.28125 C 57.179688 1.28125 63 7.101563 63 14.28125 C 63 23.671875 51.441406 31.609375 50 43.121094 C 48.558594 31.621094 37 23.671875 37 14.28125 Z "/>
<path style=" fill:#F9DD8F;" d="M 55 14 C 55 16.761719 52.761719 19 50 19 C 47.238281 19 45 16.761719 45 14 C 45 11.238281 47.238281 9 50 9 C 52.761719 9 55 11.238281 55 14 Z "/>
<path style=" fill:#8D6C9F;" d="M 17 16 C 17.550781 16 18 15.550781 18 15 L 18 13 C 18 12.449219 17.550781 12 17 12 C 16.449219 12 16 12.449219 16 13 L 16 15 C 16 15.550781 16.449219 16 17 16 Z "/>
<path style=" fill:#8D6C9F;" d="M 12 16 C 12.550781 16 13 15.550781 13 15 L 13 13 C 13 12.449219 12.550781 12 12 12 C 11.449219 12 11 12.449219 11 13 L 11 15 C 11 15.550781 11.449219 16 12 16 Z "/>
<path style=" fill:#8D6C9F;" d="M 32 16 C 32.550781 16 33 15.550781 33 15 L 33 13 C 33 12.449219 32.550781 12 32 12 C 31.449219 12 31 12.449219 31 13 L 31 15 C 31 15.550781 31.449219 16 32 16 Z "/>
<path style=" fill:#8D6C9F;" d="M 22 16 C 22.550781 16 23 15.550781 23 15 L 23 13 C 23 12.449219 22.550781 12 22 12 C 21.449219 12 21 12.449219 21 13 L 21 15 C 21 15.550781 21.449219 16 22 16 Z "/>
<path style=" fill:#8D6C9F;" d="M 27 16 C 27.550781 16 28 15.550781 28 15 L 28 13 C 28 12.449219 27.550781 12 27 12 C 26.449219 12 26 12.449219 26 13 L 26 15 C 26 15.550781 26.449219 16 27 16 Z "/>
<path style=" fill:#8D6C9F;" d="M 64 14.28125 C 63.984375 8.242188 60.097656 2.894531 54.359375 1.015625 C 48.625 -0.863281 42.328125 1.144531 38.738281 6 L 13 6 C 9.132813 6 6 9.132813 6 13 L 6 51 C 6 51.121094 6 51.230469 6 51.351563 C 5.988281 51.433594 5.988281 51.515625 6 51.601563 C 6.28125 55.011719 8.988281 57.71875 12.398438 58 C 12.453125 58.003906 12.507813 58.003906 12.558594 58 L 51 58 C 54.867188 58 58 54.867188 58 51 L 58 28.328125 C 61.101563 23.628906 64 19.21875 64 14.28125 Z M 50 2.28125 C 56.628906 2.28125 62 7.652344 62 14.28125 C 62 18.679688 59.179688 22.898438 56.199219 27.371094 C 53.820313 30.929688 51.390625 34.578125 50 38.710938 C 48.621094 34.578125 46.179688 30.929688 43.800781 27.371094 C 40.800781 22.898438 38 18.679688 38 14.28125 C 38 7.652344 43.371094 2.28125 50 2.28125 Z M 13 8 L 37.511719 8 C 36.519531 9.945313 36.003906 12.097656 36 14.28125 C 36.03125 16.207031 36.429688 18.105469 37.179688 19.878906 L 37.078125 19.941406 L 8 49 L 8 13 C 8 10.238281 10.238281 8 13 8 Z M 8.078125 51.78125 L 38.078125 21.78125 C 39.003906 23.578125 40.027344 25.320313 41.148438 27 L 12.21875 55.921875 C 10.09375 55.578125 8.421875 53.90625 8.078125 51.78125 Z M 31.21875 39.78125 L 47.46875 56 L 15 56 Z M 51 56 L 50.300781 56 L 32.640625 38.328125 L 36.28125 34.691406 L 40.539063 39 C 40.941406 39.402344 41.597656 39.402344 42 39 C 42.402344 38.597656 42.402344 37.941406 42 37.539063 L 37.738281 33.28125 L 42.328125 28.691406 C 45.328125 33.171875 48.328125 37.820313 49.058594 43.25 C 49.058594 43.800781 49.507813 44.25 50.058594 44.25 C 50.613281 44.25 51.058594 43.800781 51.058594 43.25 C 51.609375 38.871094 53.710938 35 56.058594 31.308594 L 56.058594 51 C 56.054688 51.175781 56.035156 51.355469 56.011719 51.53125 L 51.640625 47.160156 C 51.242188 46.820313 50.652344 46.84375 50.28125 47.210938 C 49.914063 47.582031 49.890625 48.171875 50.230469 48.570313 L 55.300781 53.640625 C 54.378906 55.125 52.746094 56.019531 51 56 Z "/>
<path style=" fill:#8D6C9F;" d="M 52 14 C 52 15.105469 51.105469 16 50 16 C 48.894531 16 48 15.105469 48 14 C 48 12.894531 48.894531 12 50 12 C 51.105469 12 52 12.894531 52 14 Z "/>
<path style=" fill:#8D6C9F;" d="M 50 20 C 53.3125 20 56 17.3125 56 14 C 56 13.449219 55.550781 13 55 13 C 54.449219 13 54 13.449219 54 14 C 53.996094 16.050781 52.445313 17.769531 50.402344 17.976563 C 48.363281 18.183594 46.496094 16.8125 46.082031 14.800781 C 45.667969 12.792969 46.84375 10.796875 48.800781 10.179688 C 49.328125 10.015625 49.621094 9.453125 49.453125 8.925781 C 49.289063 8.398438 48.726563 8.105469 48.199219 8.269531 C 45.363281 9.152344 43.597656 11.972656 44.050781 14.910156 C 44.5 17.847656 47.03125 20.011719 50 20 Z "/>
<path style=" fill:#8D6C9F;" d="M 51.480469 10.28125 C 52.03125 10.5 52.527344 10.84375 52.929688 11.28125 C 53.164063 11.570313 53.542969 11.703125 53.910156 11.628906 C 54.273438 11.554688 54.566406 11.28125 54.667969 10.921875 C 54.769531 10.5625 54.664063 10.175781 54.390625 9.921875 C 53.785156 9.273438 53.042969 8.765625 52.21875 8.441406 C 51.707031 8.234375 51.125 8.488281 50.921875 9 C 50.714844 9.511719 50.964844 10.09375 51.480469 10.300781 Z "/>
<path style=" fill:#8D6C9F;" d="M 44.890625 40.480469 C 44.492188 40.140625 43.902344 40.164063 43.53125 40.53125 C 43.164063 40.902344 43.140625 41.492188 43.480469 41.890625 L 45.328125 43.738281 C 45.726563 44.078125 46.316406 44.058594 46.6875 43.6875 C 47.058594 43.316406 47.078125 42.726563 46.738281 42.328125 Z "/>
<path style=" fill:#FAEFDE;" d="M 18 30 C 21.3125 30 24 27.3125 24 24 C 24 23.449219 23.550781 23 23 23 L 19.25 23 C 18.699219 23 18.25 23.449219 18.25 24 C 18.25 24.550781 18.699219 25 19.25 25 L 21.871094 25 C 21.449219 26.652344 20.027344 27.855469 18.328125 28 C 16.628906 28.140625 15.027344 27.191406 14.335938 25.632813 C 13.644531 24.070313 14.019531 22.246094 15.269531 21.085938 C 16.515625 19.921875 18.363281 19.679688 19.871094 20.480469 C 20.355469 20.757813 20.972656 20.585938 21.25 20.101563 C 21.527344 19.613281 21.355469 18.996094 20.871094 18.71875 C 18.671875 17.53125 15.964844 17.832031 14.082031 19.472656 C 12.195313 21.113281 11.527344 23.75 12.398438 26.09375 C 13.269531 28.433594 15.5 29.992188 18 30 Z "/>
</g>
</svg>
