<?xml version="1.0" encoding="UTF-8"?>
<svg width="58px" height="58px" viewBox="0 0 58 58" version="1.1" xmlns="http://www.w3.org/2000/svg" xmlns:xlink="http://www.w3.org/1999/xlink">
    <!-- Generator: Sketch 49.3 (51167) - http://www.bohemiancoding.com/sketch -->
    <title>icons8-google-maps 2</title>
    <desc>Created with Sketch.</desc>
    <defs></defs>
    <g id="Page-1" stroke="none" stroke-width="1" fill="none" fill-rule="evenodd">
        <g id="icons8-google-maps" fill="#FFFFFF" fill-rule="nonzero">
            <path d="M44,0.28125 C39.382813,0.28125 35.289063,2.539063 32.738281,6 L7,6 C3.140625,6 0,9.140625 0,13 L0,51 C0,51.117188 0.011719,51.234375 0.015625,51.351563 C0.007813,51.4375 0.015625,51.515625 0.03125,51.597656 C0.320313,54.980469 3.019531,57.679688 6.402344,57.96875 C6.453125,57.976563 6.503906,58 6.558594,58 C6.585938,58 6.617188,57.984375 6.648438,57.980469 C6.765625,57.988281 6.882813,58 7,58 L45,58 C48.859375,58 52,54.859375 52,51 L52,28.332031 C52,28.316406 51.992188,28.304688 51.988281,28.285156 C55.097656,23.628906 58,19.214844 58,14.28125 C58,6.5625 51.71875,0.28125 44,0.28125 Z M44,2.28125 C50.617188,2.28125 56,7.664063 56,14.28125 C56,18.675781 53.183594,22.898438 50.199219,27.371094 C47.820313,30.929688 45.382813,34.582031 44,38.710938 C42.613281,34.582031 40.179688,30.929688 37.800781,27.367188 C34.820313,22.898438 32,18.679688 32,14.28125 C32,7.664063 37.382813,2.28125 44,2.28125 Z M7,8 L31.503906,8 C30.550781,9.890625 30,12.019531 30,14.28125 C30,16.214844 30.449219,18.066406 31.175781,19.886719 C31.144531,19.910156 31.105469,19.921875 31.078125,19.953125 L2,49.03125 L2,13 C2,10.242188 4.242188,8 7,8 Z M42.605469,8.234375 C42.472656,8.21875 42.339844,8.234375 42.207031,8.273438 C39.691406,9.058594 38,11.359375 38,14 C38,17.308594 40.691406,20 44,20 C47.308594,20 50,17.308594 50,14 C50,13.445313 49.550781,13 49,13 C48.449219,13 48,13.445313 48,14 C48,16.207031 46.207031,18 44,18 C41.792969,18 40,16.207031 40,14 C40,12.238281 41.125,10.707031 42.804688,10.183594 C43.332031,10.015625 43.625,9.453125 43.460938,8.929688 C43.335938,8.53125 42.992188,8.269531 42.605469,8.234375 Z M45.824219,8.351563 C45.433594,8.355469 45.070313,8.597656 44.917969,8.984375 C44.714844,9.496094 44.964844,10.078125 45.480469,10.28125 C46.023438,10.5 46.523438,10.839844 46.925781,11.269531 C47.121094,11.484375 47.390625,11.589844 47.65625,11.589844 C47.902344,11.589844 48.144531,11.5 48.339844,11.320313 C48.742188,10.941406 48.765625,10.308594 48.386719,9.90625 C47.785156,9.261719 47.035156,8.75 46.21875,8.421875 C46.089844,8.371094 45.953125,8.347656 45.824219,8.351563 Z M6,12 C5.449219,12 5,12.445313 5,13 L5,15 C5,15.554688 5.449219,16 6,16 C6.550781,16 7,15.554688 7,15 L7,13 C7,12.445313 6.550781,12 6,12 Z M11,12 C10.449219,12 10,12.445313 10,13 L10,15 C10,15.554688 10.449219,16 11,16 C11.550781,16 12,15.554688 12,15 L12,13 C12,12.445313 11.550781,12 11,12 Z M16,12 C15.449219,12 15,12.445313 15,13 L15,15 C15,15.554688 15.449219,16 16,16 C16.550781,16 17,15.554688 17,15 L17,13 C17,12.445313 16.550781,12 16,12 Z M21,12 C20.449219,12 20,12.445313 20,13 L20,15 C20,15.554688 20.449219,16 21,16 C21.550781,16 22,15.554688 22,15 L22,13 C22,12.445313 21.550781,12 21,12 Z M26,12 C25.449219,12 25,12.445313 25,13 L25,15 C25,15.554688 25.449219,16 26,16 C26.550781,16 27,15.554688 27,15 L27,13 C27,12.445313 26.550781,12 26,12 Z M44,12 C42.894531,12 42,12.894531 42,14 C42,15.105469 42.894531,16 44,16 C45.105469,16 46,15.105469 46,14 C46,12.894531 45.105469,12 44,12 Z M12,18 C8.691406,18 6,20.691406 6,24 C6,27.308594 8.691406,30 12,30 C15.308594,30 18,27.308594 18,24 C18,23.445313 17.550781,23 17,23 L13.25,23 C12.699219,23 12.25,23.445313 12.25,24 C12.25,24.554688 12.699219,25 13.25,25 L15.875,25 C15.429688,26.722656 13.859375,28 12,28 C9.792969,28 8,26.207031 8,24 C8,21.792969 9.792969,20 12,20 C12.664063,20 13.324219,20.167969 13.90625,20.484375 C14.390625,20.746094 14.996094,20.5625 15.261719,20.078125 C15.527344,19.59375 15.34375,18.988281 14.859375,18.722656 C13.988281,18.25 13,18 12,18 Z M32.050781,21.808594 C32.921875,23.539063 34,25.253906 35.148438,26.992188 L6.21875,55.921875 C4.089844,55.585938 2.414063,53.910156 2.078125,51.78125 L32.050781,21.808594 Z M36.277344,28.691406 C39.269531,33.175781 42.324219,37.820313 43.003906,43.25 C43.066406,43.75 43.492188,44.125 43.996094,44.125 C44.5,44.125 44.925781,43.75 44.988281,43.25 C45.539063,38.867188 47.636719,35 50,31.3125 L50,51 C50,51.183594 49.964844,51.355469 49.945313,51.53125 L45.574219,47.15625 C45.179688,46.765625 44.550781,46.765625 44.15625,47.15625 C43.765625,47.550781 43.765625,48.179688 44.15625,48.574219 L49.226563,53.640625 C48.34375,55.050781 46.785156,56 45,56 L44.300781,56 L26.636719,38.332031 L30.277344,34.691406 L34.539063,38.953125 C34.734375,39.148438 34.988281,39.25 35.246094,39.25 C35.503906,39.25 35.757813,39.148438 35.953125,38.953125 C36.34375,38.5625 36.34375,37.933594 35.953125,37.542969 L31.691406,33.277344 L36.277344,28.691406 Z M25.222656,39.75 L41.472656,56 L8.96875,56 L25.222656,39.75 Z M38.1875,40.1875 C37.929688,40.1875 37.675781,40.28125 37.480469,40.480469 C37.085938,40.871094 37.085938,41.5 37.480469,41.890625 L39.332031,43.746094 C39.527344,43.941406 39.78125,44.039063 40.039063,44.039063 C40.296875,44.039063 40.550781,43.941406 40.746094,43.746094 C41.136719,43.355469 41.136719,42.722656 40.746094,42.332031 L38.890625,40.480469 C38.695313,40.28125 38.441406,40.1875 38.1875,40.1875 Z" id="Shape"></path>
        </g>
    </g>
</svg>