<?xml version="1.0" encoding="UTF-8"?>
<svg width="46px" height="46px" viewBox="0 0 46 46" version="1.1" xmlns="http://www.w3.org/2000/svg" xmlns:xlink="http://www.w3.org/1999/xlink">
    <!-- Generator: Sketch 49.3 (51167) - http://www.bohemiancoding.com/sketch -->
    <title>Slice 1</title>
    <desc>Created with Sketch.</desc>
    <defs></defs>
    <g id="Page-1" stroke="none" stroke-width="1" fill="none" fill-rule="evenodd">
        <g id="icons8-google-maps-filled" fill="#FFFFFF" fill-rule="nonzero">
            <path d="M34,0 C33.570313,0 33.136719,0.015625 32.71875,0.0625 C32.605469,0.074219 32.488281,0.109375 32.375,0.125 C32.070313,0.164063 31.765625,0.21875 31.46875,0.28125 C31.355469,0.304688 31.269531,0.316406 31.15625,0.34375 C30.863281,0.414063 30.566406,0.5 30.28125,0.59375 C30.1875,0.625 30.09375,0.652344 30,0.6875 C29.699219,0.796875 29.382813,0.929688 29.09375,1.0625 C29.023438,1.09375 28.976563,1.125 28.90625,1.15625 C28.597656,1.304688 28.292969,1.453125 28,1.625 C27.953125,1.652344 27.890625,1.691406 27.84375,1.71875 C27.53125,1.90625 27.230469,2.097656 26.9375,2.3125 C26.914063,2.332031 26.898438,2.355469 26.875,2.375 C26.5625,2.609375 26.257813,2.863281 25.96875,3.125 C25.960938,3.132813 25.945313,3.117188 25.9375,3.125 C25.636719,3.398438 25.363281,3.699219 25.09375,4 C23.1875,6.125 22,8.925781 22,12 C22,16.148438 24.136719,18.992188 26.40625,22 C27.230469,23.09375 28.109375,24.246094 28.9375,25.53125 C30.722656,27.773438 32.371094,30.410156 33.28125,33.90625 C33.421875,34.449219 33.417969,34.875 33.65625,35.0625 C33.765625,35.085938 33.871094,35.09375 34,35.09375 C34.128906,35.09375 34.234375,35.082031 34.34375,35.0625 C34.582031,34.875 34.578125,34.449219 34.71875,33.90625 C35.628906,30.410156 37.277344,27.773438 39.0625,25.53125 C39.890625,24.246094 40.769531,23.089844 41.59375,22 C41.734375,21.816406 41.863281,21.621094 42,21.4375 C42.214844,21.152344 42.417969,20.878906 42.625,20.59375 C42.722656,20.460938 42.808594,20.320313 42.90625,20.1875 C43.0625,19.964844 43.222656,19.753906 43.375,19.53125 C43.484375,19.367188 43.582031,19.195313 43.6875,19.03125 C43.820313,18.828125 43.972656,18.644531 44.09375,18.4375 C44.203125,18.253906 44.304688,18.0625 44.40625,17.875 C44.515625,17.679688 44.621094,17.480469 44.71875,17.28125 C44.820313,17.078125 44.910156,16.863281 45,16.65625 C45.085938,16.464844 45.175781,16.257813 45.25,16.0625 C45.339844,15.832031 45.394531,15.613281 45.46875,15.375 C45.527344,15.1875 45.605469,15.003906 45.65625,14.8125 C45.726563,14.53125 45.761719,14.230469 45.8125,13.9375 C45.839844,13.773438 45.886719,13.636719 45.90625,13.46875 C45.964844,13 46,12.503906 46,12 C46,5.382813 40.617188,0 34,0 Z M4.34375,4 C1.953125,4 0,5.953125 0,8.34375 L0,41.65625 C0,41.882813 0.027344,42.09375 0.0625,42.3125 C0.382813,44.386719 2.179688,46 4.34375,46 L37.65625,46 C37.882813,46 38.09375,45.972656 38.3125,45.9375 C40.277344,45.632813 41.8125,44.011719 41.96875,42 L42,42 L42,24.78125 C41.582031,25.355469 41.160156,25.957031 40.75,26.59375 L40.625,26.78125 C38.597656,29.328125 37.367188,31.675781 36.65625,34.40625 C36.625,34.523438 36.613281,34.617188 36.59375,34.71875 C36.515625,35.125 36.371094,35.773438 35.90625,36.3125 L40,40.40625 L40,41.65625 C40,42.941406 38.941406,44 37.65625,44 L36.40625,44 L22.34375,29.96875 L25.9375,26.3125 L29.5,29.90625 C28.914063,28.871094 28.21875,27.839844 27.375,26.78125 L27.25,26.59375 C26.667969,25.691406 26.078125,24.902344 25.5,24.125 L5.59375,44 L4.34375,44 C3.058594,44 2,42.941406 2,41.65625 L2,40.40625 L22.46875,19.90625 C21.058594,17.671875 20,15.183594 20,12 C20,9.027344 20.941406,6.269531 22.53125,4 L4.34375,4 Z M10.125,8 C11.710938,8 13.132813,8.605469 14.21875,9.59375 L12.5,11.3125 C11.855469,10.761719 11.039063,10.4375 10.125,10.4375 C8.089844,10.4375 6.4375,12.089844 6.4375,14.125 C6.4375,16.160156 8.089844,17.8125 10.125,17.8125 C11.835938,17.8125 13.003906,16.789063 13.4375,15.375 L10.125,15.375 L10.125,13.03125 L15.875,13.03125 C16.378906,15.414063 15.46875,20.21875 10.125,20.21875 C6.75,20.21875 4,17.5 4,14.125 C4,10.75 6.75,8 10.125,8 Z M34,9 C35.65625,9 37,10.34375 37,12 C37,13.65625 35.65625,15 34,15 C32.34375,15 31,13.65625 31,12 C31,10.34375 32.34375,9 34,9 Z" id="Shape"></path>
        </g>
    </g>
</svg>